<svg xmlns="http://www.w3.org/2000/svg" width="40" height="40"><path fill="#4d5ae5" d="M40 20c0 5.523-2.239 10.523-5.858 14.142S25.523 40 20 40 9.477 37.761 5.858 34.142 0 25.523 0 20 2.239 9.477 5.858 5.858 14.477 0 20 0s10.523 2.239 14.142 5.858S40 14.477 40 20z" style="fill:var(--color1, #4d5ae5)"/><path fill="#f4f4fd" d="M22.665 14.657h1.461v-2.544A18.755 18.755 0 0 0 21.998 12c-2.106 0-3.549 1.325-3.549 3.759V18h-2.324v2.844h2.324V28h2.849v-7.155h2.23l.354-2.844h-2.585v-1.959c.001-.822.222-1.385 1.367-1.385z" style="fill:var(--color2, #f4f4fd)"/></svg>