<svg xmlns="http://www.w3.org/2000/svg" width="40" height="40"><path fill="#4d5ae5" d="M40 20c0 5.523-2.239 10.523-5.858 14.142S25.523 40 20 40 9.477 37.761 5.858 34.142 0 25.523 0 20 2.239 9.477 5.858 5.858 14.477 0 20 0s10.523 2.239 14.142 5.858S40 14.477 40 20z" style="fill:var(--color1, #4d5ae5)"/><path fill="#f4f4fd" d="M27.984 16.704c-.038-.85-.175-1.435-.372-1.941a3.904 3.904 0 0 0-.925-1.419 3.944 3.944 0 0 0-1.416-.922c-.509-.197-1.091-.334-1.941-.372-.856-.041-1.128-.05-3.301-.05s-2.444.009-3.297.047c-.85.037-1.435.175-1.941.372a3.904 3.904 0 0 0-1.419.925c-.406.4-.722.884-.922 1.416-.197.509-.334 1.091-.372 1.941-.041.856-.05 1.128-.05 3.301s.009 2.444.047 3.297c.037.85.175 1.435.372 1.941.203.538.519 1.019.925 1.419.4.406.885.722 1.416.922.509.197 1.091.334 1.941.372.853.038 1.125.047 3.297.047s2.444-.009 3.297-.047c.85-.038 1.435-.175 1.941-.372a4.095 4.095 0 0 0 2.341-2.341c.197-.509.334-1.091.372-1.941.038-.853.047-1.125.047-3.297s-.003-2.444-.041-3.298zm-1.44 6.532c-.034.781-.166 1.203-.275 1.485a2.655 2.655 0 0 1-1.519 1.519c-.281.109-.706.241-1.485.275-.844.038-1.097.047-3.232.047s-2.391-.009-3.232-.047c-.781-.034-1.203-.166-1.485-.275a2.453 2.453 0 0 1-.919-.597 2.477 2.477 0 0 1-.597-.919c-.109-.281-.241-.706-.275-1.485-.038-.844-.047-1.097-.047-3.232s.009-2.391.047-3.232c.034-.781.166-1.203.275-1.485.128-.347.331-.663.6-.919.259-.266.572-.469.919-.597.281-.109.706-.241 1.485-.275.844-.037 1.097-.047 3.232-.047 2.138 0 2.391.009 3.232.047.781.034 1.203.166 1.485.275.347.128.663.331.919.597.266.259.469.572.597.919.109.281.241.706.275 1.485.038.844.047 1.097.047 3.232s-.009 2.385-.047 3.229z" style="fill:var(--color2, #f4f4fd)"/><path fill="#f4f4fd" d="M20.03 15.891a4.111 4.111 0 0 0 0 8.22 4.111 4.111 0 0 0 0-8.22zm0 6.777a2.667 2.667 0 1 1 .001-5.333 2.667 2.667 0 0 1-.001 5.333zM25.262 15.729a.96.96 0 1 1-1.92 0 .96.96 0 0 1 1.92 0z" style="fill:var(--color2, #f4f4fd)"/></svg>