<svg xmlns="http://www.w3.org/2000/svg" width="40" height="40"><path fill="#4d5ae5" d="M40 20c0 5.523-2.239 10.523-5.858 14.142S25.523 40 20 40 9.477 37.761 5.858 34.142 0 25.523 0 20 2.239 9.477 5.858 5.858 14.477 0 20 0s10.523 2.239 14.142 5.858S40 14.477 40 20z" style="fill:var(--color1, #4d5ae5)"/><path fill="#f4f4fd" d="M27.996 28v-.001H28v-5.868c0-2.871-.618-5.082-3.974-5.082-1.613 0-2.696.885-3.138 1.725h-.047v-1.457h-3.182v10.682h3.313V22.71c0-1.393.264-2.739 1.989-2.739 1.699 0 1.725 1.589 1.725 2.829v5.201h3.31zM12.264 17.318h3.317V28h-3.317V17.318zM13.921 12C12.86 12 12 12.861 12 13.921s.861 1.939 1.921 1.939 1.921-.879 1.921-1.939A1.922 1.922 0 0 0 13.921 12z" style="fill:var(--color2, #f4f4fd)"/></svg>