<svg xmlns="http://www.w3.org/2000/svg" width="40" height="40"><path fill="#4d5ae5" d="M40 20c0 5.523-2.239 10.523-5.858 14.142S25.523 40 20 40 9.477 37.761 5.858 34.142 0 25.523 0 20 2.239 9.477 5.858 5.858 14.477 0 20 0s10.523 2.239 14.142 5.858S40 14.477 40 20z" style="fill:var(--color1, #4d5ae5)"/><path fill="#f4f4fd" d="M28 15.039a6.839 6.839 0 0 1-1.89.518 3.262 3.262 0 0 0 1.443-1.813 6.555 6.555 0 0 1-2.08.794 3.28 3.28 0 0 0-5.674 2.243c0 .26.022.51.076.748a9.284 9.284 0 0 1-6.761-3.431 3.285 3.285 0 0 0 1.008 4.384 3.24 3.24 0 0 1-1.482-.404v.036a3.295 3.295 0 0 0 2.628 3.223 3.274 3.274 0 0 1-.86.108 2.9 2.9 0 0 1-.621-.056 3.311 3.311 0 0 0 3.065 2.285 6.59 6.59 0 0 1-4.067 1.399c-.269 0-.527-.012-.785-.045a9.234 9.234 0 0 0 5.032 1.472c6.036 0 9.336-5 9.336-9.334 0-.145-.005-.285-.012-.424A6.544 6.544 0 0 0 28 15.039z" style="fill:var(--color2, #f4f4fd)"/></svg>